# xmcd CD database file
#
# Track frame offsets:
#	150
#	49800
#	101925
#	189750
#	234600
#	250005
#
# Disc length: 3989 seconds
#
# Revision: 0
# Processed by: cddbd v1.5.1PL0 Copyright (c) Steve Scherf et al.
# Submitted via: CDex 1.51
#
DISCID=480f9306
DTITLE=Giuseppe Sinopoli and New York Philharmonik,Philharmonia Orchestra - タンホイザー序曲/ワーグナー管弦楽曲集
DYEAR=1985
DGENRE=Opera
TTITLE0=歌劇《ニュルンベルクのマイスタージンガー》第1幕への前奏曲
TTITLE1=歌劇《さまよえるオランダ人》序曲
TTITLE2=ジークフリート牧歌
TTITLE3=歌劇《ローエングリン》第1幕への前奏曲
TTITLE4=歌劇《ローエングリン》第3幕への前奏曲
TTITLE5=歌劇《タンホイザー》序曲
EXTD=YEAR: 1985/1988
EXTT0=
EXTT1=
EXTT2=
EXTT3=
EXTT4=
EXTT5=
PLAYORDER=
